<?xml version="1.0" encoding="UTF-8" standalone="no"?>
<svg
   xmlns:dc="http://purl.org/dc/elements/1.1/"
   xmlns:cc="http://creativecommons.org/ns#"
   xmlns:rdf="http://www.w3.org/1999/02/22-rdf-syntax-ns#"
   xmlns:svg="http://www.w3.org/2000/svg"
   xmlns="http://www.w3.org/2000/svg"
   xmlns:sodipodi="http://sodipodi.sourceforge.net/DTD/sodipodi-0.dtd"
   xmlns:inkscape="http://www.inkscape.org/namespaces/inkscape"
   version="1.1"
   width="100"
   height="100"
   viewBox="0 0 0.1953125 0.1953125"
   preserveAspectRatio="xMidYMid"
   id="svg2"
   inkscape:version="0.48.4 r9939"
   sodipodi:docname="bitcoin.svg">
  <metadata
     id="metadata22">
    <rdf:RDF>
      <cc:Work
         rdf:about="">
        <dc:format>image/svg+xml</dc:format>
        <dc:type
           rdf:resource="http://purl.org/dc/dcmitype/StillImage" />
        <dc:title />
      </cc:Work>
    </rdf:RDF>
  </metadata>
  <sodipodi:namedview
     pagecolor="#ffffff"
     bordercolor="#666666"
     borderopacity="1"
     objecttolerance="10"
     gridtolerance="10"
     guidetolerance="10"
     inkscape:pageopacity="0"
     inkscape:pageshadow="2"
     inkscape:window-width="1447"
     inkscape:window-height="861"
     id="namedview20"
     showgrid="false"
     inkscape:zoom="1.84375"
     inkscape:cx="63.433441"
     inkscape:cy="14.438938"
     inkscape:window-x="0"
     inkscape:window-y="0"
     inkscape:window-maximized="0"
     inkscape:current-layer="svg2" />
  <!-- Android launcher icons: viewBox="-0.045 -0.045 1.09 1.09" -->
  <defs
     id="defs4">
    <filter
       id="_drop-shadow"
       color-interpolation-filters="sRGB">
      <feGaussianBlur
         in="SourceAlpha"
         result="blur-out"
         stdDeviation="1"
         id="feGaussianBlur7" />
      <feBlend
         in="SourceGraphic"
         in2="blur-out"
         mode="normal"
         id="feBlend9" />
    </filter>
    <linearGradient
       id="coin-gradient"
       x1="0"
       y1="0"
       x2="0"
       y2="1">
      <stop
         offset="0%"
         style="stop-color:#f9aa4b"
         id="stop12" />
      <stop
         offset="100%"
         style="stop-color:#f7931a"
         id="stop14" />
    </linearGradient>
  </defs>
  <path
     inkscape:connector-curvature="0"
     id="symbol"
     d="M 0.16736507,0.07947637 C 0.17022819,0.06033509 0.15565463,0.05004522 0.13572671,0.0431808 l 0.006465,-0.02592927 -0.0157833,-0.0039335 -0.006293,0.02524597 c -0.00415,-0.001034 -0.00841,-0.0020093 -0.0126455,-0.0029759 L 0.11380891,0.01017584 0.09803468,0.00624236 0.09156578,0.03216264 c -0.0034344,-7.8227e-4 -0.006806,-0.0015553 -0.01007863,-0.0023689 l 1.799e-5,-8.092e-5 -0.02176656,-0.0054349 -0.0041987,0.01685764 c 0,0 0.01171041,0.0026837 0.01146319,0.00285 0.0063924,0.0015959 0.0075477,0.005826 0.0073544,0.0091795 L 0.06699407,0.0827041 c 4.4047e-4,1.1238e-4 0.0010115,2.7421e-4 0.0016408,5.2591e-4 -5.2592e-4,-1.3036e-4 -0.0010878,-2.7421e-4 -0.0016678,-4.1371e-4 l -0.0103228,0.04138006 c -7.8227e-4,0.001942 -0.0027645,0.004855 -0.007233,0.003749 1.5734e-4,2.2927e-4 -0.01147217,-0.002863 -0.01147217,-0.002863 l -0.0078354,0.0180667 0.02053931,0.00512 c 0.0038211,9.5727e-4 0.0075657,0.00196 0.0112519,0.002904 l -0.0065317,0.026226 0.01576524,0.003933 0.0064688,-0.0259472 c 0.0043066,0.001168 0.0084873,0.002248 0.01257804,0.003264 l -0.0064464,0.0258259 0.01578323,0.003933 0.0065315,-0.0261765 c 0.0269138,0.005093 0.0471519,0.003039 0.0556706,-0.0213035 0.006864,-0.0195998 -3.418e-4,-0.0309056 -0.0145021,-0.038278 0.0103123,-0.002378 0.0180803,-0.0091616 0.0201527,-0.02317361 z m -0.0360618,0.05056834 c -0.004878,0.0195998 -0.03787797,0.009004 -0.0485769,0.006347 l 0.0086671,-0.0347443 c 0.01069898,0.00267 0.04500761,0.007957 0.03990986,0.0283972 z m 0.004882,-0.05085155 c -0.00445,0.01782859 -0.0319171,0.0087705 -0.0408269,0.0065497 l 0.0078579,-0.0315125 c 0.00891,0.0022208 0.0376037,0.0063655 0.032969,0.02496274 z"
     style="fill:#000000;fill-opacity:1" />
</svg>
