<?xml version="1.0" encoding="UTF-8" standalone="no"?>
<!-- Created with Inkscape (http://www.inkscape.org/) -->

<svg
   xmlns:dc="http://purl.org/dc/elements/1.1/"
   xmlns:cc="http://creativecommons.org/ns#"
   xmlns:rdf="http://www.w3.org/1999/02/22-rdf-syntax-ns#"
   xmlns:svg="http://www.w3.org/2000/svg"
   xmlns="http://www.w3.org/2000/svg"
   xmlns:sodipodi="http://sodipodi.sourceforge.net/DTD/sodipodi-0.dtd"
   xmlns:inkscape="http://www.inkscape.org/namespaces/inkscape"
   width="100"
   height="100"
   id="svg2"
   version="1.1"
   inkscape:version="0.48.4 r9939"
   sodipodi:docname="cancer.svg">
  <defs
     id="defs4" />
  <sodipodi:namedview
     id="base"
     pagecolor="#ffffff"
     bordercolor="#666666"
     borderopacity="1.0"
     inkscape:pageopacity="0.0"
     inkscape:pageshadow="2"
     inkscape:zoom="3.959798"
     inkscape:cx="-4.6388911"
     inkscape:cy="54.731692"
     inkscape:document-units="px"
     inkscape:current-layer="layer1"
     showgrid="false"
     inkscape:window-width="1600"
     inkscape:window-height="841"
     inkscape:window-x="-8"
     inkscape:window-y="-8"
     inkscape:window-maximized="1" />
  <metadata
     id="metadata7">
    <rdf:RDF>
      <cc:Work
         rdf:about="">
        <dc:format>image/svg+xml</dc:format>
        <dc:type
           rdf:resource="http://purl.org/dc/dcmitype/StillImage" />
        <dc:title />
      </cc:Work>
    </rdf:RDF>
  </metadata>
  <g
     inkscape:label="Layer 1"
     inkscape:groupmode="layer"
     id="layer1"
     style="display:inline"
     transform="translate(0,-952.36215)">
    <path
       style="fill:#000000"
       d="m 28.582257,1050.28 c -1.61611,-2.3455 -2.290988,-4.2101 -2.30022,-6.3553 -0.0073,-1.6574 0.20307,-2.571 0.974848,-4.2369 1.455539,-3.1418 4.931572,-6.614 10.557877,-10.5459 2.167196,-1.5147 6.312463,-4.1216 12.470818,-7.8431 6.708602,-4.0538 12.151053,-7.6737 12.151053,-8.0818 0,-0.09 -3.309122,-0.1496 -8.44635,-0.1496 l -8.446351,0 -0.715664,-0.4741 c -0.966892,-0.6404 -2.896898,-2.2761 -2.9778,-2.5237 -0.05188,-0.1587 2.473116,-0.1998 12.267975,-0.1998 l 12.333275,0 0.488612,-0.5196 c 1.402962,-1.4921 3.010775,-4.1791 3.010775,-5.0318 l 0,-0.3643 -16.108148,0 c -9.477166,0 -16.203454,-0.063 -16.339686,-0.1489 -0.293506,-0.1857 -0.422485,-1.994 -0.185932,-2.6067 l 0.169743,-0.4396 16.157089,0 c 13.716275,0 16.170086,-0.035 16.243148,-0.2243 0.212278,-0.55321 -1.346538,-3.33015 -2.723711,-4.85195 l -0.759547,-0.83946 -12.21618,0 c -10.036969,0 -12.216181,-0.0381 -12.216181,-0.21195 0,-0.19957 1.002782,-1.06449 2.780963,-2.39872 l 0.78243,-0.58696 8.464095,0 c 6.469919,0 8.449162,-0.0452 8.400708,-0.19018 -0.08319,-0.24953 -3.228227,-2.50113 -5.724863,-4.09846 -1.088429,-0.69626 -2.003026,-1.33828 -2.032429,-1.42653 -0.06398,-0.19196 3.538733,-2.43881 3.910583,-2.43881 0.515386,0 6.902903,4.20622 9.79596,6.45068 2.472231,1.9181 5.370469,4.85407 6.510235,6.59507 1.31296,2.00552 1.824433,3.4242 1.925485,5.34077 0.179477,3.404 -1.370819,6.4324 -5.125918,10.013 -3.636416,3.4675 -6.879339,5.7081 -18.240679,12.6026 -7.860288,4.77 -12.725632,7.9894 -12.725632,8.4205 0,0.08 3.676921,0.1409 8.438192,0.1409 7.659435,0 8.474667,0.025 8.833496,0.2702 0.92264,0.6306 3.353134,2.6463 3.353134,2.781 0,0.088 -4.962564,0.1465 -12.326731,0.1465 l -12.326732,0 -0.489903,0.5196 c -1.367717,1.4507 -2.995921,4.1853 -2.995921,5.0318 l 0,0.3642 16.218613,0 c 11.661949,0 16.249278,0.05 16.327746,0.1766 0.199837,0.3234 0.262384,2.1354 0.08907,2.5807 l -0.170839,0.4389 -16.27227,0.04 -16.272269,0.041 0.03927,0.3997 c 0.06688,0.6803 1.421808,3.2268 2.270837,4.2678 0.444157,0.5448 0.807559,1.0663 0.807559,1.1592 0,0.113 -1.12471,0.1689 -3.417493,0.1689 l -3.417502,0 -0.798682,-1.1592 z m 37.69155,1.0744 c 0,-0.046 0.488764,-0.6588 1.086145,-1.3603 3.634902,-4.2684 3.84534,-7.612 0.743968,-11.8207 -1.984728,-2.6933 -6.408675,-6.2806 -12.292552,-9.9677 -0.675747,-0.4234 -1.201677,-0.8507 -1.168729,-0.9495 0.09131,-0.274 3.512474,-2.3491 3.876875,-2.3516 0.344953,0 4.031533,2.303 7.072583,4.4228 5.230427,3.6458 8.960258,7.424 10.364285,10.4986 1.605915,3.5168 1.03191,6.887 -1.786391,10.489 l -0.87962,1.1242 -3.508285,0 c -1.929551,0 -3.508279,-0.038 -3.508279,-0.084 z m -24.382051,-31.6731 c -10.882715,-6.9111 -15.619195,-12.2444 -15.600226,-17.5659 0.01427,-3.99466 2.990009,-8.07599 9.394953,-12.88545 2.805307,-2.1065 6.063998,-4.22501 12.520627,-8.13959 8.686121,-5.26637 11.66513,-7.20428 14.709172,-9.56857 1.692374,-1.31447 4.134621,-3.65431 5.043023,-4.83156 3.234437,-4.19176 3.058418,-7.93995 -0.574311,-12.22922 -0.510856,-0.60318 -0.893669,-1.15359 -0.850686,-1.22313 0.04297,-0.0696 1.578663,-0.12643 3.412645,-0.12643 l 3.334505,0 0.669182,0.75944 c 1.691976,1.92016 2.714973,4.30241 2.832126,6.59515 0.148825,2.91263 -0.840927,5.2259 -3.592159,8.39561 -2.975443,3.42806 -7.68623,6.83977 -18.428321,13.34648 -11.362682,6.88266 -14.457583,9.02603 -17.768967,12.30667 -1.796803,1.78014 -3.075816,3.55301 -3.6714,5.08921 -0.535899,1.38239 -0.603011,3.62899 -0.149057,4.98959 1.221087,3.6602 4.649986,7.0274 12.294523,12.0735 1.682723,1.1106 3.059491,2.08 3.059491,2.1543 0,0.2038 -3.636359,2.4013 -3.957399,2.3914 -0.153717,-0.012 -1.35869,-0.6938 -2.677721,-1.5315 z m 2.07847,-40.09799 c -0.175867,-0.11656 -1.713359,-1.12277 -3.416653,-2.23626 -6.855775,-4.4821 -10.534059,-7.73351 -12.668815,-11.19859 -2.017082,-3.27406 -2.14164,-6.84064 -0.348598,-9.98168 0.636909,-1.11574 1.939593,-2.8516 2.221049,-2.9596 0.468418,-0.17975 6.77849,-0.10823 6.77849,0.0767 0,0.0949 -0.348909,0.58052 -0.775358,1.0792 -1.49537,1.74868 -2.656808,3.81508 -2.553452,4.54301 l 0.05123,0.36075 16.226533,0.0799 16.226518,0.0799 0.141253,0.7732 c 0.08135,0.44531 0.0817,1.05555 7.26e-4,1.43895 l -0.140391,0.66572 -16.227352,0.0818 c -8.92505,0.045 -16.245344,0.099 -16.267328,0.11991 -0.332846,0.31701 1.090159,3.11373 2.357672,4.6337 l 0.965789,1.15817 12.347956,0.0409 c 10.827094,0.0359 12.347955,0.0704 12.347955,0.27974 0,0.13133 -0.738996,0.83281 -1.64221,1.55885 l -1.642217,1.32009 -8.630225,0 c -7.196279,0 -8.630225,0.0364 -8.630225,0.21879 0,0.26155 3.02608,2.44438 5.818765,4.19732 1.267208,0.79541 1.992996,1.34775 1.969222,1.49844 -0.04754,0.30115 -3.439963,2.39314 -3.870867,2.38707 -0.175868,0 -0.463657,-0.0999 -0.639532,-0.21622 z"
       id="path3833"
       inkscape:connector-curvature="0" />
  </g>
  <g
     inkscape:groupmode="layer"
     id="layer2"
     inkscape:label="Mask"
     transform="translate(0,-952.36215)" />
</svg>
