<?xml version="1.0" encoding="UTF-8" standalone="no"?>
<svg
   xmlns:dc="http://purl.org/dc/elements/1.1/"
   xmlns:cc="http://creativecommons.org/ns#"
   xmlns:rdf="http://www.w3.org/1999/02/22-rdf-syntax-ns#"
   xmlns:svg="http://www.w3.org/2000/svg"
   xmlns="http://www.w3.org/2000/svg"
   xmlns:sodipodi="http://sodipodi.sourceforge.net/DTD/sodipodi-0.dtd"
   xmlns:inkscape="http://www.inkscape.org/namespaces/inkscape"
   version="1.1"
   width="100"
   height="100"
   viewBox="0 0 0.1953125 0.1953125"
   preserveAspectRatio="xMidYMid"
   id="svg2"
   inkscape:version="0.48.4 r9939"
   sodipodi:docname="global warming.svg">
  <metadata
     id="metadata22">
    <rdf:RDF>
      <cc:Work
         rdf:about="">
        <dc:format>image/svg+xml</dc:format>
        <dc:type
           rdf:resource="http://purl.org/dc/dcmitype/StillImage" />
        <dc:title></dc:title>
      </cc:Work>
    </rdf:RDF>
  </metadata>
  <sodipodi:namedview
     pagecolor="#ffffff"
     bordercolor="#666666"
     borderopacity="1"
     objecttolerance="10"
     gridtolerance="10"
     guidetolerance="10"
     inkscape:pageopacity="0"
     inkscape:pageshadow="2"
     inkscape:window-width="1447"
     inkscape:window-height="861"
     id="namedview20"
     showgrid="false"
     inkscape:zoom="5.2149125"
     inkscape:cx="77.376618"
     inkscape:cy="46.555813"
     inkscape:window-x="0"
     inkscape:window-y="0"
     inkscape:window-maximized="0"
     inkscape:current-layer="svg2" />
  <!-- Android launcher icons: viewBox="-0.045 -0.045 1.09 1.09" -->
  <defs
     id="defs4">
    <filter
       id="_drop-shadow"
       color-interpolation-filters="sRGB">
      <feGaussianBlur
         in="SourceAlpha"
         result="blur-out"
         stdDeviation="1"
         id="feGaussianBlur7" />
      <feBlend
         in="SourceGraphic"
         in2="blur-out"
         mode="normal"
         id="feBlend9" />
    </filter>
    <linearGradient
       id="coin-gradient"
       x1="0"
       y1="0"
       x2="0"
       y2="1">
      <stop
         offset="0%"
         style="stop-color:#f9aa4b"
         id="stop12" />
      <stop
         offset="100%"
         style="stop-color:#f7931a"
         id="stop14" />
    </linearGradient>
  </defs>
  <path
     style="fill:#000000;opacity:1;fill-opacity:1"
     d="M 0.09083824,0.18552464 C 0.09037263,0.18544549 0.08816324,0.18513877 0.08592814,0.18484313 0.07603704,0.18353413 0.06446126,0.17965613 0.05545227,0.17463473 0.03054066,0.16074753 0.01383605,0.13679313 0.00934621,0.10851873 0.00845598,0.10291073 0.00845252,0.08695367 0.00934036,0.08159839 0.01267826,0.06146894 0.02124578,0.04457695 0.0351046,0.0307986 0.04918796,0.016797 0.06612783,0.00825689 0.08592817,0.0051761 c 0.006363,-9.8962e-4 0.01923664,-0.00107 0.02539657,-1.5813e-4 0.0278238,0.00411924 0.0508336,0.01926145 0.0654439,0.04306616 0.006576,0.0107133 0.0112423,0.02462865 0.0126282,0.03765264 6.0366e-4,0.0056732 2.439e-4,0.01841992 -6.7169e-4,0.02379783 -0.003233,0.0189898 -0.0115989,0.0354893 -0.02487,0.0490493 -0.0137908,0.0140909 -0.031838,0.0233382 -0.0513449,0.0263089 -0.003689,5.6189e-4 -0.01939041,0.00102 -0.02167172,6.3184e-4 z m 0.01840994,-0.002341 c 0.0103924,-0.001216 0.0205004,-0.004189 0.029318,-0.008624 0.00331,-0.001665 0.0100844,-0.005682 0.0103752,-0.006153 1.0886e-4,-1.7613e-4 1.257e-5,-5.4371e-4 -2.14e-4,-8.165e-4 -7.3489e-4,-8.859e-4 -1.1452e-4,-0.003057 0.002389,-0.00836 0.001341,-0.002842 0.002515,-0.005712 0.002609,-0.006379 9.358e-5,-6.6635e-4 -7.499e-5,-0.002397 -3.7468e-4,-0.003846 -2.996e-4,-0.001449 -5.4465e-4,-0.003149 -5.4465e-4,-0.00378 0,-0.002095 0.0016,-0.005322 0.004112,-0.008297 0.003997,-0.004733 0.004293,-0.005914 0.002693,-0.010762 -0.001394,-0.004222 -0.001366,-0.005856 1.6606e-4,-0.0100734 0.001022,-0.002813 0.001194,-0.003677 0.001085,-0.005457 -1.6375e-4,-0.002659 -5.2786e-4,-0.003081 -0.002153,-0.002493 -0.001129,4.0825e-4 -0.001299,3.7399e-4 -0.002597,-5.2459e-4 l -0.00139,-9.611e-4 -0.005952,-1.91e-5 c -0.005001,-1.603e-5 -0.006196,-1.1976e-4 -0.007476,-6.4863e-4 -0.0026,-0.001074 -0.005778,-0.003321 -0.009559,-0.0067605 -0.003845,-0.0034969 -0.00432,-0.00428 -0.004321,-0.0071322 -6.7e-7,-0.001911 8.6862e-4,-0.0069896 0.00171,-0.0099893 0.001103,-0.0039291 0.001364,-0.0060129 9.5677e-4,-0.00763 -3.0706e-4,-0.0012195 -2.5927e-4,-0.0016206 3.3131e-4,-0.0027787 3.7957e-4,-7.4422e-4 0.001099,-0.0018392 0.0016,-0.0024339 9.6801e-4,-0.0011504 0.004032,-0.0030717 0.004879,-0.0030596 2.7932e-4,4.04e-6 0.001575,-0.00114 0.002878,-0.002541 0.002347,-0.0025246 0.002402,-0.0025583 0.005714,-0.0035661 0.003817,-0.0011616 0.008296,-0.0013786 0.0112407,-5.4442e-4 9.1874e-4,2.5997e-4 0.002994,5.6493e-4 0.004612,6.7754e-4 0.001618,1.1263e-4 0.003363,3.6488e-4 0.003877,5.605e-4 5.1457e-4,1.9566e-4 0.002738,0.0017191 0.004941,0.0033854 l 0.004005,0.0030302 0.003207,5.08e-5 c 0.001764,2.793e-5 0.003398,6.602e-5 0.00363,8.465e-5 6.1739e-4,4.939e-5 3.7397e-4,-0.0014036 -5.3298e-4,-0.0031832 -8.885e-4,-0.0017424 -0.00246,-0.0029395 -0.004245,-0.0032342 -0.00227,-3.7421e-4 -0.003055,-8.5124e-4 -0.003659,-0.0022213 -6.6705e-4,-0.0015125 -7.9925e-4,-0.0015635 -0.001636,-6.393e-4 -0.001073,0.0011849 -0.001819,8.5964e-4 -0.002723,-0.001185 -4.5301e-4,-0.0010242 -9.2998e-4,-0.0018626 -0.00106,-0.0018626 -1.3003e-4,0 -5.8102e-4,3.2385e-4 -0.001003,7.1951e-4 -0.001771,0.0016638 -0.003849,4.1059e-4 -0.003849,-0.0023206 0,-0.0014641 -3.572e-5,-0.0015186 -8.8936e-4,-0.0013561 -5.7939e-4,1.1076e-4 -0.001778,-2.3501e-4 -0.00344,-9.9221e-4 -0.001403,-6.3907e-4 -0.002738,-0.0010899 -0.002968,-0.0010017 -2.4458e-4,9.382e-5 -5.1924e-4,0.0011893 -6.6262e-4,0.0026404 -1.3468e-4,0.0013639 -3.7469e-4,0.0027269 -5.3299e-4,0.0030285 -3.1849e-4,6.0597e-4 -0.004015,0.0016525 -0.005837,0.0016525 -0.001198,0 -0.00321,-0.0011469 -0.004347,-0.0024779 -8.2559e-4,-9.6715e-4 -0.003673,-0.006108 -0.003673,-0.0066318 0,-7.0295e-4 0.004133,-0.0024088 0.005952,-0.0024563 0.002186,-5.776e-5 0.004755,-0.0015479 0.00641,-0.0037182 l 0.001244,-0.0016309 -5.6189e-4,-0.001471 c -3.334e-4,-8.7294e-4 -5.1806e-4,-0.0021495 -4.5418e-4,-0.00314 l 1.0738e-4,-0.0016685 -0.001835,-3.2524e-4 c -0.001622,-2.8749e-4 -0.001953,-4.9313e-4 -0.002857,-0.0017744 -7.8782e-4,-0.0011175 -0.001297,-0.0014926 -0.002228,-0.0016396 -0.001546,-2.4481e-4 -0.002043,-5.2016e-4 -0.002821,-0.0015618 -8.3749e-4,-0.0011219 -0.001246,-0.0030017 -0.001256,-0.005777 -9.1e-6,-0.0025626 3.3597e-4,-0.0029749 0.002489,-0.0029749 6.5306e-4,0 0.001274,-1.4038e-4 0.00138,-3.1196e-4 5.5607e-4,-8.9974e-4 -0.0110555,-0.0065315 -0.0186063,-0.0090246 -0.003062,-0.00101036 -0.005804,-0.00183836 -0.006092,-0.00183836 -2.8934e-4,0 -0.001291,0.00120483 -0.002226,0.00267846 -0.001844,0.0029032 -0.001854,0.0029118 -0.004176,0.0032601 -0.001717,2.574e-4 -0.002635,0.0011184 -0.006874,0.0064459 -0.001081,0.0013587 -0.002169,0.0025566 -0.002419,0.0026629 -2.497e-4,1.0599e-4 -9.006e-4,-7.125e-5 -0.001447,-3.9379e-4 -0.002013,-0.0011893 -0.003936,-0.0049567 -0.004251,-0.0083301 -1.773e-4,-0.0018989 -6.809e-5,-0.0025142 9.0232e-4,-0.0050855 0.001277,-0.00338285 0.001125,-0.00394724 -0.001057,-0.00394724 -0.001564,0 -0.001636,3.3341e-4 -5.5374e-4,0.00256091 l 7.5938e-4,0.00156265 -0.001053,9.0146e-4 c -0.0033552,0.0028721 -0.0045289,0.0037796 -0.0048902,0.0037796 -2.2222e-4,0 -0.001013,-5.5025e-4 -0.0017571,-0.001223 -0.0013016,-0.0011763 -0.0014261,-0.0012152 -0.0032575,-0.0010216 -0.0010475,1.1063e-4 -0.002503,2.9984e-4 -0.0032351,4.2037e-4 -9.611e-4,1.5841e-4 -0.0016413,5.217e-5 -0.0024485,-3.8283e-4 -0.0010994,-5.9221e-4 -0.0011366,-5.8895e-4 -0.0022714,2.098e-4 -6.3418e-4,4.4649e-4 -0.0020812,0.0014624 -0.0032152,0.0022584 -0.0024753,0.0017364 -0.0027554,0.0022014 -0.0027554,0.0045739 0,0.0013976 1.5945e-4,0.0019766 6.7218e-4,0.0024408 6.358e-4,5.7542e-4 7.5214e-4,5.7776e-4 0.0021504,4.395e-5 0.0017191,-6.5656e-4 0.0041521,-0.0026301 0.0044676,-0.0036249 1.9482e-4,-6.1389e-4 4.0825e-4,-6.6589e-4 0.0019671,-4.789e-4 0.0016767,2.0104e-4 0.0018159,1.5308e-4 0.0033941,-0.0011642 9.0491e-4,-7.5588e-4 0.0019879,-0.0013742 0.0024071,-0.0013742 9.7839e-4,0 0.0049213,0.003675 0.0049187,0.0045851 -1.01e-6,3.6511e-4 -3.7724e-4,0.0012731 -8.3608e-4,0.0020181 -0.0010752,0.001745 -0.0010622,0.0021322 7.582e-5,0.0022636 8.5847e-4,9.876e-5 9.248e-4,2.1311e-4 8.5311e-4,0.0014615 -1.7221e-4,0.0029879 -0.0021201,0.0059256 -0.0039291,0.0059256 -4.0615e-4,0 -0.0014537,-3.8097e-4 -0.0023293,-8.4658e-4 -8.7466e-4,-4.6561e-4 -0.0017675,-8.4657e-4 -0.0019836,-8.4657e-4 -2.1629e-4,0 -9.4726e-4,6.0642e-4 -0.0016249,0.0013474 -9.9826e-4,0.0010916 -0.0015834,0.001414 -0.0030864,0.0016992 -0.0010199,1.9349e-4 -0.0026197,3.2689e-4 -0.0035548,2.9658e-4 -0.0019991,-6.485e-5 -0.0047009,6.6518e-4 -0.0076827,0.002076 -0.0013604,6.4373e-4 -0.0026828,0.0010138 -0.0036214,0.0010138 -0.0011919,2.1e-7 -0.0019334,3.031e-4 -0.0038323,0.0015652 -0.0012947,8.608e-4 -0.003344,0.0019827 -0.0045531,0.0024926 -0.0012091,5.1014e-4 -0.0023353,0.001064 -0.002503,0.0012316 -1.6706e-4,1.6706e-4 -6.2111e-4,0.0022817 -0.0010095,0.0047 C 0.05455547,0.0491393 0.05410828,0.0512473 0.0539495,0.0514055 0.0529374,0.0524176 0.0511362,0.050262 0.0505217,0.0473035 0.04981059,0.0438774 0.0471596,0.0422137 0.0430075,0.042587 0.0389012,0.04295562 0.0336302,0.0465654 0.03236698,0.049873 c -8.9714e-4,0.0023492 -7.9552e-4,0.0049006 2.3945e-4,0.0060051 7.7873e-4,8.3072e-4 0.0010009,8.8245e-4 0.0033319,7.764e-4 0.0023604,-1.0751e-4 0.0025341,-6.501e-5 0.0031642,7.7196e-4 6.2951e-4,8.361e-4 6.3604e-4,9.4554e-4 1.1614e-4,0.0019507 -3.0286e-4,5.8592e-4 -0.0010821,0.0014062 -0.001732,0.0018237 -0.0015704,0.0010078 -0.0018755,0.0021789 -7.9552e-4,0.0030562 7.6731e-4,6.2275e-4 8.1301e-4,8.6516e-4 8.1301e-4,0.004318 0,0.0042938 2.9284e-4,0.0048988 0.0032299,0.006675 0.001325,8.0134e-4 0.0022264,0.0011002 0.0033172,0.0011002 0.0013881,0 0.0016387,-1.481e-4 0.0034425,-0.002032 0.0011011,-0.0011495 0.0022377,-0.002032 0.0026188,-0.002032 3.7024e-4,0 0.0012429,3.868e-4 0.0019395,8.594e-4 0.0016162,0.0010968 0.0057891,0.0032031 0.0063543,0.0032074 0.0010354,7.93e-6 0.0040968,0.0017753 0.0054217,0.0031305 7.9411e-4,8.1183e-4 0.0021296,0.0017476 0.0029671,0.0020786 0.0050959,0.0020147 0.009369,0.0061374 0.01106385,0.01067372 3.1919e-4,8.5404e-4 0.0010579,0.0021625 0.0016422,0.0029075 5.8381e-4,7.4492e-4 0.0014728,0.0020735 0.0019741,0.0029516 7.6311e-4,0.0013362 0.0011469,0.0016569 0.002344,0.0019611 0.0044079,0.001119 0.0082791,0.003205 0.01036171,0.005583 0.0010769,0.00123 0.0011322,0.001414 9.6801e-4,0.003231 -2.4388e-4,0.00269 -0.0012325,0.004699 -0.0033517,0.006811 -0.001573,0.001568 -0.0019931,0.00229 -0.0031236,0.005366 -9.5418e-4,0.002596 -0.0019032,0.004394 -0.0035203,0.006663 -0.0020372,0.00286 -0.0023915,0.003188 -0.0044442,0.004124 -0.0012264,5.5863e-4 -0.0028695,0.001182 -0.0036499,0.001387 -0.0017571,4.5954e-4 -0.0028945,0.001735 -0.0067208,0.007534 -0.0027822,0.004218 -0.002904,0.004346 -0.0063215,0.006654 -0.00477,0.003221 -0.0066853,0.005269 -0.0083932,0.008973 l -0.001382,0.002997 8.5917e-4,0.00467 c 0.001006,0.00547 0.0010415,0.006099 3.376e-4,0.006099 -0.0019326,0 -0.0063146,-0.003859 -0.0088499,-0.007795 -0.0012757,-0.00198 -0.0014676,-0.002567 -0.0019689,-0.006015 -3.052e-4,-0.002101 -7.9529e-4,-0.004386 -0.001089,-0.005079 -6.6963e-4,-0.001579 -6.6286e-4,-0.004976 1.831e-5,-0.009086 4.5745e-4,-0.00276 4.5675e-4,-0.003244 -4.57e-6,-0.004571 -4.3017e-4,-0.001238 -4.5046e-4,-0.001851 -1.2239e-4,-0.003686 2.1651e-4,-0.001211 6.7662e-4,-0.004029 0.0010225,-0.006264 6.7591e-4,-0.004366 7.4142e-4,-0.003926 -9.2653e-4,-0.006245 -4.4345e-4,-6.1692e-4 -5.9501e-4,-0.001487 -5.9501e-4,-0.003417 l 0,-0.00259 -0.002,-0.00183 c -0.0021728,-0.001987 -0.0060319,-0.006605 -0.0068642,-0.008213 -2.8537e-4,-5.5187e-4 -5.7332e-4,-0.00178 -6.3977e-4,-0.002729 -6.64e-5,-9.49e-4 -2.7815e-4,-0.0026404 -4.7074e-4,-0.003758 -4.2667e-4,-0.0024771 -1.4851e-4,-0.0049654 7.5682e-4,-0.0067726 3.7327e-4,-7.4492e-4 0.0017018,-0.002802 0.0029533,-0.0045713 0.0025505,-0.0036067 0.0030475,-0.0047796 0.0030475,-0.007184 0,-0.0021391 -2.3288e-4,-0.0025255 -0.0025056,-0.0041599 -0.0019887,-0.0014295 -0.0022437,-0.001853 -0.0030492,-0.0050475 -3.8237e-4,-0.0015177 -8.4611e-4,-0.0023492 -0.0019231,-0.0034468 -0.0013302,-0.0013552 -0.0014088,-0.0015419 -0.0012489,-0.0029628 9.401e-5,-8.3399e-4 7.696e-5,-0.0016551 -3.789e-5,-0.0018254 -1.1485e-4,-1.6988e-4 -9.2998e-4,-6.5328e-4 -0.0018107,-0.0010743 -0.0023345,-0.0011158 -0.0048513,-0.0035134 -0.0055168,-0.0052549 -4.7937e-4,-0.001255 -5.0851e-4,-0.0018366 -1.9372e-4,-0.0038651 2.0376e-4,-0.0013129 3.6536e-4,-0.0027398 3.5929e-4,-0.0031694 l -1.126e-5,-7.8175e-4 -6.575e-4,7.8899e-4 c -0.0010277,0.0012334 -0.0038496,0.0066438 -0.0055047,0.01055487 -0.0029196,0.0069005 -0.0049049,0.01385666 -0.0062333,0.02184103 -4.9568e-4,0.0029801 -6.1878e-4,0.005586 -6.1622e-4,0.01303687 3.66e-6,0.01043759 3.4623e-4,0.01351362 0.0024321,0.02184103 0.0089789,0.03585 0.03979125,0.0626254 0.07653621,0.0665089 0.004522,4.7796e-4 0.0148729,4.0336e-4 0.01952247,-1.405e-4 z M 0.06137826,0.06483663 c -4.656e-4,-1.4911e-4 -0.001866,-2.8631e-4 -0.0031123,-3.0496e-4 -0.0023734,-3.536e-5 -0.002987,-3.4367e-4 -0.0021184,-0.0010639 6.8523e-4,-5.6865e-4 0.0038271,-0.0020173 0.0043751,-0.0020173 7.5822e-4,0 0.0035644,0.0017338 0.0035644,0.0022022 0,0.0014477 -7.9668e-4,0.001796 -0.0027087,0.0011841 z m -0.0064338,-0.0056344 c -4.656e-4,-6.835e-5 -0.0019896,-2.8701e-4 -0.0033863,-4.8612e-4 -0.0052618,-7.4982e-4 -0.0060544,-0.0013103 -0.0042498,-0.003006 0.0012118,-0.0011383 0.0030337,-0.0010804 0.0048824,1.5423e-4 0.0010804,7.2207e-4 0.0020691,0.0010493 0.0036724,0.0012152 0.0013561,1.404e-4 0.0024079,4.4415e-4 0.0027537,7.9598e-4 5.218e-4,5.2972e-4 5.1503e-4,6.027e-4 -9.689e-5,0.0010562 -6.2554e-4,4.6375e-4 -0.0017044,5.4535e-4 -0.0035756,2.7069e-4 z M 0.14135826,0.0398964 c -6.815e-4,-6.815e-4 -0.001056,-0.0014771 -0.001225,-0.0026015 -2.672e-4,-0.0017813 -7.6218e-4,-0.0021823 -0.001925,-0.0015601 -6.7405e-4,3.6068e-4 -8.6104e-4,3.003e-4 -0.001551,-5.0082e-4 -0.001014,-0.0011789 -9.9135e-4,-0.0013993 2.6719e-4,-0.0025488 8.9973e-4,-8.221e-4 0.001017,-0.0011132 8.1651e-4,-0.0020268 -5.0548e-4,-0.0023016 0.001212,-0.0026957 0.003416,-7.8502e-4 8.0577e-4,6.9829e-4 0.001979,0.0016819 0.002608,0.0021867 0.001318,0.0010579 0.003283,0.0045298 0.003283,0.0058012 0,0.0010864 -0.001816,0.0025471 -0.003508,0.0028211 -0.001014,1.6451e-4 -0.001354,4.188e-5 -0.002182,-7.8689e-4 z M 0.11492082,0.02313467 c -0.002342,-6.7357e-4 -0.003609,-0.0021288 -0.002753,-0.0031616 5.1246e-4,-6.174e-4 0.004683,-0.0022048 0.005793,-0.0022048 4.8403e-4,0 0.001214,3.7141e-4 0.001657,8.4331e-4 6.8337e-4,7.2744e-4 7.3559e-4,9.4814e-4 3.8004e-4,0.0016085 -2.2672e-4,4.2084e-4 -7.1019e-4,0.0013371 -0.001074,0.0020345 -5.6587e-4,0.0010847 -8.2186e-4,0.0012653 -0.00176,0.0012394 -6.0387e-4,-1.681e-5 -0.001613,-1.7869e-4 -0.002243,-3.5976e-4 z"
     id="path4411"
     inkscape:connector-curvature="0" />
</svg>
